<?xml version="1.0" encoding="iso-8859-1"?>
<!-- Generator: Adobe Illustrator 19.0.0, SVG Export Plug-In . SVG Version: 6.00 Build 0)  -->
<svg version="1.1" id="Capa_1" xmlns="http://www.w3.org/2000/svg" xmlns:xlink="http://www.w3.org/1999/xlink" x="0px" y="0px"
	 viewBox="0 0 512 512" style="enable-background:new 0 0 512 512;" xml:space="preserve">
<g>
	<path style="fill:#C2C7D0;" d="M188.343,405.569l-22.207,81.058c-1.543,5.632,1.771,11.45,7.404,12.993
		c5.635,1.543,11.45-1.775,12.993-7.404l22.213-81.078C201.795,409.658,194.984,407.799,188.343,405.569z"/>
	<path style="fill:#C2C7D0;" d="M307.109,405.569c-6.641,2.23-13.452,4.09-20.402,5.569l22.213,81.078
		c1.543,5.633,7.36,8.948,12.993,7.404c5.633-1.543,8.948-7.36,7.404-12.993L307.109,405.569z"/>
</g>
<path style="fill:#969A9F;" d="M247.726,46.449c3.55,0,7.073,0.109,10.575,0.305v-32.18c0-5.84-4.734-10.575-10.575-10.575
	s-10.575,4.734-10.575,10.575v32.179C240.652,46.557,244.176,46.449,247.726,46.449z"/>
<circle style="fill:#FFC850;" cx="251.726" cy="229.844" r="186.391"/>
<circle style="fill:#FFFFFF;" cx="247.726" cy="229.844" r="149.729"/>
<circle style="fill:#FFC850;" cx="247.726" cy="229.844" r="111.237"/>
<circle style="fill:#FFFFFF;" cx="247.726" cy="229.844" r="71.394"/>
<circle style="fill:#FF9052;" cx="247.726" cy="229.844" r="34.497"/>
<path style="fill:#FEA82F;" d="M81.336,229.84c0-99.586,78.101-180.927,176.392-186.123c-3.312-0.175-6.645-0.269-10.001-0.269
	c-102.941,0-186.392,83.451-186.392,186.392s83.451,186.392,186.392,186.392c3.355,0,6.688-0.093,10.001-0.268
	C159.435,410.767,81.336,329.426,81.336,229.84z"/>
<path style="fill:#E4EAF8;" d="M118.002,229.84c0-79.33,61.698-144.238,139.724-149.385c-3.306-0.218-6.639-0.34-10.001-0.34
	c-82.691,0-149.725,67.034-149.725,149.725s67.034,149.725,149.725,149.725c3.361,0,6.694-0.122,10.001-0.34
	C179.7,374.079,118.002,309.17,118.002,229.84z"/>
<path style="fill:#FEA82F;" d="M156.487,229.84c0-58.066,44.491-105.73,101.24-110.789c-3.295-0.294-6.629-0.452-10.001-0.452
	c-61.437,0-111.241,49.804-111.241,111.241s49.804,111.241,111.24,111.241c3.371,0,6.705-0.159,10.001-0.452
	C200.977,335.571,156.487,287.905,156.487,229.84z"/>
<path style="fill:#E4EAF8;" d="M196.335,229.84c0-36.033,26.7-65.815,61.392-70.68c-3.269-0.458-6.604-0.712-10.001-0.712
	c-39.428,0-71.392,31.963-71.392,71.392s31.963,71.392,71.392,71.392c3.396,0,6.731-0.253,10.001-0.712
	C223.035,295.655,196.335,265.873,196.335,229.84z"/>
<path style="fill:#FF8031;" d="M233.231,229.84c0-15.574,10.322-28.732,24.496-33.019c-3.166-0.958-6.521-1.478-10.001-1.478
	c-19.052,0-34.497,15.445-34.497,34.497s15.445,34.497,34.497,34.497c3.479,0,6.834-0.52,10.001-1.478
	C243.552,258.572,233.231,245.414,233.231,229.84z"/>
<path style="fill:#E4EAF8;" d="M408.295,29.678l-17.383,17.383c-2.62,2.62-3.582,6.265-2.355,8.93l10.412,22.607l27.968-27.968
	l-9.603-20.85C415.89,26.642,411.381,26.592,408.295,29.678z"/>
<path style="fill:#FFFFFF;" d="M447.889,69.271l-17.382,17.383c-2.62,2.62-6.265,3.582-8.93,2.355L398.97,78.598l27.968-27.968
	l20.85,9.603C450.924,61.677,450.975,66.185,447.889,69.271z"/>
<g>
	<path style="fill:#474D54;" d="M434.236,239.372c-4.11-0.379-7.778,2.647-8.164,6.772
		c-7.994,85.827-76.161,153.365-161.294,161.295c-4.125,0.384-7.156,4.039-6.772,8.165c0.384,4.123,4.038,7.156,8.163,6.772
		c5.192-0.484,10.321-1.182,15.384-2.065l20.379,74.385c2.603,9.499,12.479,15.32,22.207,12.657
		c9.637-2.639,15.298-12.572,12.658-22.209l-20.368-74.341c67.928-25.589,117.581-88.133,124.58-163.267
		C441.392,243.412,438.361,239.758,434.236,239.372z M302.174,415.544l20.155,73.563c0.446,1.628-0.506,3.326-2.151,3.777
		c-1.643,0.453-3.341-0.555-3.778-2.151l-20.155-73.568c1.9-0.486,3.785-1.006,5.662-1.548
		C301.996,415.592,302.086,415.57,302.174,415.544z"/>
	<path style="fill:#474D54;" d="M418.685,99.322c5.532,2.548,12.513,0.994,17.37-3.864l17.384-17.382
		c3.473-3.473,5.073-8.188,4.283-12.613c-0.685-3.826-3.071-6.939-6.551-8.543l-18.334-8.444l-8.445-18.334
		c-1.603-3.479-4.716-5.867-8.543-6.55c-4.425-0.792-9.14,0.81-12.613,4.283l-17.383,17.383c-4.858,4.859-6.411,11.841-3.863,17.37
		l8.225,17.861l-10.559,10.559c-0.253-0.234-0.5-0.475-0.755-0.708c-31.35-28.725-70.884-46.153-112.857-50.053V18.076
		C266.047,8.108,257.939,0,247.973,0c-9.967,0-18.075,8.108-18.075,18.075v22.223C131.429,49.445,54.08,132.524,54.08,233.341
		c0,48.614,18.073,95.113,50.891,130.932c20.792,22.692,46.351,39.871,74.552,50.507l-20.375,74.367
		c-2.639,9.635,3.018,19.569,12.66,22.209c9.669,2.644,19.584-3.098,22.204-12.657l20.381-74.391
		c5.08,0.888,10.21,1.587,15.383,2.069c4.127,0.384,7.779-2.651,8.163-6.772c0.384-4.125-2.648-7.779-6.772-8.165
		c-91.834-8.556-162.086-84.637-162.086-178.1c0-98.616,80.213-178.833,178.799-178.891c0.031,0,0.062-0.001,0.093-0.001
		c0.038,0,0.077,0.001,0.115,0.001c45.134,0.02,88.186,16.65,121.188,46.98l-15.609,15.609
		c-27.94-25.414-65.039-40.924-105.694-40.924c-86.694,0-157.227,70.531-157.227,157.227s70.531,157.226,157.227,157.226
		s157.227-70.531,157.227-157.226c0-40.654-15.511-77.755-40.924-105.694l15.612-15.612c25.565,27.824,42.412,63.976,46.186,104.5
		c0.385,4.124,4.04,7.156,8.164,6.772c4.125-0.384,7.156-4.039,6.772-8.164c-3.963-42.547-21.834-82.281-50.743-113.488
		l10.56-10.559L418.685,99.322z M194.345,419.702c1.632,0.469,3.271,0.916,4.917,1.342c0.147,0.038,0.291,0.082,0.438,0.12
		l-20.156,73.569c-0.438,1.597-2.132,2.601-3.777,2.152c-1.635-0.448-2.601-2.138-2.151-3.776l20.155-73.564
		C193.961,419.601,194.155,419.648,194.345,419.702z M251.046,39.475c-2.034-0.034-4.222-0.032-6.147,0v-21.4
		c0-1.695,1.379-3.074,3.074-3.074c1.694,0,3.073,1.379,3.073,3.074V39.475z M390.198,233.342
		c0,78.423-63.802,142.225-142.226,142.225s-142.226-63.802-142.226-142.225S169.549,91.117,247.973,91.117
		c36.519,0,69.862,13.84,95.075,36.543l-16.627,16.626c-20.936-18.464-48.404-29.686-78.448-29.686
		c-65.475,0-118.741,53.267-118.741,118.741s53.267,118.741,118.741,118.741s118.741-53.267,118.741-118.741
		c0-30.044-11.222-57.512-29.686-78.449l16.626-16.626C376.358,163.479,390.198,196.823,390.198,233.342z M242.668,238.645
		c2.93,2.929,7.678,2.929,10.608,0l18.331-18.331l10.871-10.871l15.632-15.632c8.601,10.885,13.754,24.613,13.754,39.53
		c0,35.23-28.662,63.892-63.892,63.892s-63.892-28.662-63.892-63.892s28.662-63.892,63.892-63.892
		c14.918,0,28.646,5.153,39.53,13.754l-12.534,12.534l-3.098,3.098l-10.871,10.871l-6.677,6.677l-11.655,11.655
		C239.74,230.967,239.74,235.716,242.668,238.645z M247.973,154.448c-43.502,0-78.893,35.391-78.893,78.893
		s35.391,78.893,78.893,78.893s78.893-35.391,78.893-78.893c0-19.055-6.792-36.554-18.081-50.204l17.623-17.623
		c15.76,18.199,25.307,41.92,25.307,67.827c0,57.202-46.538,103.74-103.74,103.74s-103.74-46.538-103.74-103.74
		s46.538-103.74,103.74-103.74c25.908,0,49.627,9.547,67.827,25.306l-17.623,17.623
		C284.527,161.241,267.029,154.448,247.973,154.448z M428.793,63.129l12.584,5.795l-15.928,15.927
		c-0.372,0.372-0.729,0.555-0.944,0.635l-12.372-5.697L428.793,63.129z M396.464,55.864l15.927-15.927l5.795,12.584l-16.661,16.66
		l-5.697-12.372C395.908,56.593,396.092,56.236,396.464,55.864z"/>
</g>
<g>
</g>
<g>
</g>
<g>
</g>
<g>
</g>
<g>
</g>
<g>
</g>
<g>
</g>
<g>
</g>
<g>
</g>
<g>
</g>
<g>
</g>
<g>
</g>
<g>
</g>
<g>
</g>
<g>
</g>
</svg>
